v 8.294245 -0.612633 29.066034
v -6.040613 -7.841120 4.058613
v 5.629880 4.184879 19.439196
v 7.003115 -6.979534 0.000428
v 8.242846 -0.998014 27.729441
v 4.465543 8.841142 9.976404
v 4.929835 -6.727226 1.814457
v -4.079020 -6.183003 20.815287
v -9.580667 -2.524151 32.722458
v -6.627074 -3.493414 3.812315
v -1.810733 -9.748097 18.902952
v 6.971540 7.013083 0.000358
v -7.007858 6.987006 0.000323
v -5.328682 4.637183 22.236639
v -6.928175 -1.650277 1.498456
v -8.000592 2.396244 8.973745
v -7.597932 -2.465922 25.680449
v -5.403563 -8.328332 6.535644
v -7.007858 6.987006 0.000323
v 9.868655 0.602082 26.590939
v -7.975335 1.622298 10.449722
v 0.890449 9.845007 21.785759
v 6.796831 7.173073 0.856799
v 4.125290 -5.934775 11.525866
v -6.953781 -6.996453 -0.000572
v -5.282812 -5.990425 10.818905
v 4.034574 9.034902 11.468826
v -5.099164 6.607086 2.603814
v 5.147525 8.457565 7.501447
v -9.453132 -2.870076 33.999882
v -1.810733 -9.748097 18.902952
v -4.672697 5.711416 11.272508
v 4.328829 5.845876 20.577253
v -5.310022 4.733343 20.525974
v -7.749199 2.301652 7.298318
v -0.749409 7.049002 8.091041
v -0.784836 -8.133657 14.057371
v 9.479382 2.874857 33.999069
v 1.093933 9.823141 21.181995
v -2.845568 9.468113 33.999649
v 3.620408 7.122454 1.047547
v -1.114697 -9.836725 21.132395
v -8.150183 5.633564 5.659635
v -6.175610 -3.292699 14.438821
v 7.559298 -6.385900 2.684860
v -0.458206 -9.880955 23.230263
v 6.691081 4.641678 2.222234
v 4.153077 -5.634887 19.956522
v -0.465680 9.865717 26.193933
v 2.707853 -9.509459 33.488350
v 2.111145 -9.692187 31.441689
v -9.618263 2.291575 17.382309
v 9.478963 -2.816216 15.661203
v -1.432009 -7.696764 8.740458
v 4.465543 8.841142 9.976404
v -2.363672 6.849577 18.275429
v 6.929194 1.576489 12.670322
v -5.612744 -4.293090 16.487007
v 1.286899 -9.822433 28.768290
v -2.972848 -7.836108 19.680506
v -5.321539 5.922343 7.309843
v -6.587151 2.709229 30.904284
v 5.848079 -3.844708 29.959869
v 6.766949 1.791201 8.130435
v -1.397577 9.794185 29.104921
v -5.427822 -4.429829 22.217840
v -6.705574 -7.273204 1.269119
v 4.249347 6.859157 15.623995
v -7.241305 0.593807 6.005657
v 5.877996 5.436738 7.514595
v 3.376279 6.149006 31.283329
v 7.844019 2.201556 25.425095
v -6.386099 -2.997747 9.662053
v 9.479382 2.874857 33.999069
v -6.953781 -6.996453 -0.000572
v 4.833326 -5.058487 23.392645
v 3.068024 6.292682 33.999836
v 6.012319 -5.668009 7.916481
v 6.971540 7.013083 0.000358
v -9.719077 -1.935186 30.852112
v -3.984925 -9.066686 11.669579
v 0.008419 -8.421929 30.966253
v 1.714977 9.724751 19.176317
v -7.339733 1.814041 4.534136
v -6.766949 -1.791201 8.130435
v 6.058857 3.497065 16.578873
v 1.286899 -9.822433 28.768290
v -0.458206 -9.880955 23.230263
v -8.150183 5.633564 5.659635
v -8.004512 -1.107970 20.815819
v -9.115915 3.892651 12.065250
v -9.872495 0.345631 23.603569
v 0.589101 -7.350236 12.391103
v -7.325886 1.825359 29.657681
v -9.916379 -0.055343 24.841831
v -0.582811 8.280377 20.058779
v 9.777887 1.571375 29.660555
v 2.345746 9.634438 17.153387
v -9.814168 -1.292012 28.801704
v 5.629970 8.107251 5.621803
v 7.163044 -1.420905 3.109537
v -6.249911 -3.269560 18.986193
v 0.498435 7.866038 32.357216
v -9.748650 1.774092 19.001730
v -7.246827 2.889857 2.429905
v -3.407254 -9.296011 13.652249
v -5.291489 4.572952 27.284393
v -2.680690 -9.528747 16.053492
v 5.280760 -4.773756 32.112965
v 9.899156 -0.080817 24.423864
v -9.457487 2.946274 15.211276
v 6.263490 3.127035 14.395977
v 7.991297 -0.641973 30.826679
v 2.717162 -6.800038 2.822577
v 9.673206 2.129169 31.491343
v -8.833609 4.474506 9.942677
v -8.514701 5.042757 7.884555
v 4.224456 -6.480494 4.218306
v 8.262264 -5.471051 6.290194
v -6.862534 -3.746506 30.202259
v 6.358358 7.567801 2.698319
v 7.082808 -3.647415 0.801027
v 6.796831 7.173073 0.856799
v -2.845568 9.468113 33.999649
v 7.878905 -6.000602 4.217400
v 9.777887 1.571375 29.660555
v 2.736139 -6.879485 22.172737
v 4.690944 5.196774 26.189480
v 9.626909 -2.152514 17.807875
v 5.124885 -4.764023 25.174040
v -3.851741 7.093089 32.032841
v 9.870976 -0.692482 22.487885
v 1.157845 7.758111 29.947599
v -3.083736 -7.016053 0.000112
v -9.748650 1.774092 19.001730
v 5.824636 -5.063367 13.180151
v 5.147525 8.457565 7.501447
v -1.001738 9.827174 27.889616
v -2.680690 -9.528747 16.053492
v -4.380755 -5.494511 25.577040
v -3.654986 6.884830 1.023714
v 0.654687 -9.877588 26.719822
v 0.433274 8.191411 15.518715
v 3.176367 7.297619 2.729970
v 9.870976 -0.692482 22.487885
v -2.191617 -8.198289 10.702534
v -9.618263 2.291575 17.382309
v -3.979020 -6.807940 17.603748
v -4.109916 5.665734 19.198030
v 6.941214 1.033282 4.474830
v -2.845568 9.468113 33.999649
v -4.599257 -6.226699 15.353209
v 7.612955 -2.920580 5.453044
v 7.003115 -6.979534 0.000428
v 3.068024 6.292682 33.999836
v -9.916379 -0.055343 24.841831
v 6.000070 -6.077619 5.307405
v 9.808311 -1.311255 20.452991
v 8.048158 0.201142 33.999729
v -1.488554 -7.219787 3.776545
v -7.771803 -0.767315 17.515528
v 5.629970 8.107251 5.621803
v 2.707853 -9.509459 33.488350
v 2.888548 -9.463758 33.999977
v -2.002444 9.704732 31.045351
v 6.839396 1.511953 6.197335
v -4.590740 -8.758487 9.533130
v -5.452492 4.946550 16.208307
v -4.902319 5.009799 24.026653
v -1.744275 -8.167696 24.589886
v -3.730533 6.870115 30.188255
v -6.040613 -7.841120 4.058613
v 8.189698 0.735271 20.176569
v 6.971540 7.013083 0.000358
v 9.557802 -2.478462 16.731850
v 9.673206 2.129169 31.491343
v -3.407254 -9.296011 13.652249
v 6.544129 2.506338 9.450695
v 1.554349 -6.823900 7.740263
v -9.580667 -2.524151 32.722458
v -7.031339 1.517640 0.516694
v 9.478963 -2.816216 15.661203
v -0.618281 6.985091 0.001775
v 4.858252 -5.146945 28.482809
v -5.262869 -5.540925 12.542670
v 0.700171 7.199705 4.723921
v 8.911511 -4.257053 10.682794
v 4.034574 9.034902 11.468826
v -9.837216 1.102586 21.133375
v 9.868655 0.602082 26.590939
v -8.239820 1.476521 25.549587
v -5.646121 5.092235 13.848208
v -1.046502 7.293217 14.410102
v -9.216434 3.675214 12.782166
v -1.397577 9.794185 29.104921
v 9.557802 -2.478462 16.731850
v 2.345746 9.634438 17.153387
v -6.491861 -3.125131 6.758644
v -0.513365 7.809382 16.630434
v 2.286464 -6.817406 17.990314
v 5.990738 4.729615 33.996708
v 7.478780 0.873627 15.506095
v -6.579521 -5.094320 2.801949
v 0.477837 7.575984 10.495941
v -6.953781 -6.996453 -0.000572
v -7.648191 -0.076666 13.551192
v -1.114697 -9.836725 21.132395
v 2.111145 -9.692187 31.441689
v -6.705574 -7.273204 1.269119
v 6.358358 7.567801 2.698319
v -5.748562 -4.117616 24.315443
v 9.337726 -3.229139 14.248692
v 6.450013 5.138472 3.655358
v 7.538043 -1.462268 7.249278
v 4.825908 6.664791 12.443731
v -9.457487 2.946274 15.211276
v 9.103435 -3.880655 12.002495
v -9.453132 -2.870076 33.999882
v 5.444628 -4.421714 26.792980
v -7.377155 -3.040868 27.886427
v 7.482369 1.878485 21.322153
v -0.465680 9.865717 26.193933
v 0.218056 9.901209 23.986191
v 6.261446 -3.119110 33.304424
v 3.541505 7.175186 19.007586
v -6.198234 -4.377703 31.797264
v -8.514701 5.042757 7.884555
v -7.290846 6.713420 1.269234
v 2.416681 7.705288 6.820096
v -7.886349 -1.790850 23.562035
v 9.709051 -1.820755 18.790487
v -3.984925 -9.066686 11.669579
v -6.642059 -2.252111 11.627797
v -7.417799 3.563697 3.293253
v -8.833609 4.474506 9.942677
v 2.888548 -9.463758 33.999977
v 3.165408 -6.516545 6.207059
v 6.250615 3.570553 23.441034
v 2.532157 -7.872164 27.505732
v 3.374058 -7.456886 30.311708
v -4.095325 -5.680914 29.054287
v -0.618281 6.985091 0.001775
v -5.403563 -8.328332 6.535644
v -7.007858 6.987006 0.000323
v 6.252088 3.268245 10.973170
v 1.602971 -7.598442 20.470285
v -3.300629 6.492984 5.975469
v 0.654687 -9.877588 26.719822
v 9.626909 -2.152514 17.807875
v -1.001738 9.827174 27.889616
v 4.746362 8.696989 8.957848
v 5.160206 5.558323 13.545219
v -7.821793 6.067844 3.959009
v -9.719077 -1.935186 30.852112
v 0.957710 -6.956559 1.028062
v -9.216434 3.675214 12.782166
v 7.022315 -0.451472 1.596864
v -5.513764 -4.937120 33.296364
v -9.115915 3.892651 12.065250
v 7.878905 -6.000602 4.217400
v 0.400033 -9.909686 26.054310
v 8.911511 -4.257053 10.682794
v -2.705175 7.255478 24.973822
v -3.228882 -7.648801 5.312639
v 7.576102 -2.602412 23.038874
v -0.639074 -8.137457 29.908590
v 4.442617 5.447671 24.583384
v 1.681637 8.076935 25.307728
v 7.663511 3.474364 31.920921
v 4.063564 -6.045991 9.755857
v 0.400033 -9.909686 26.054310
v 8.541770 0.556503 32.175316
v -1.645913 7.959405 23.131968
v -4.531898 5.942382 9.209373
v -4.893065 6.348770 4.707084
v 2.488588 7.721471 23.023521
v 2.983751 -6.349173 16.453922
v -7.939430 1.337733 27.867594
v 9.899156 -0.080817 24.423864
v -2.002444 9.704732 31.045351
v 2.888548 -9.463758 33.999977
v -7.541696 1.115127 32.037415
v 9.808311 -1.311255 20.452991
v -8.157374 0.267747 15.974902
v -4.590740 -8.758487 9.533130
v 0.890449 9.845007 21.785759
v -6.349779 -4.515630 5.240115
v 7.110342 3.551971 30.137085
v 8.048158 0.201142 33.999729
v -9.814168 -1.292012 28.801704
v 9.479382 2.874857 33.999069
v 5.982354 6.346581 5.509324
v 7.003115 -6.979534 0.000428
v 3.281216 9.329686 14.030933
v 3.671092 -5.953675 18.713985
v 8.262264 -5.471051 6.290194
v -0.170163 -8.373761 17.618069
v -2.437138 -7.724468 23.150600
v -9.884181 -0.567622 26.444036
v 5.785589 3.955527 17.859726
v 8.676309 -4.745201 8.985425
v -1.262593 6.912025 3.522728
v 1.093933 9.823141 21.181995
v -9.837216 1.102586 21.133375
v -9.872495 0.345631 23.603569
v 7.559298 -6.385900 2.684860
v 9.337726 -3.229139 14.248692
v -7.290846 6.713420 1.269234
v -3.344227 -7.257976 2.312159
v -7.689178 2.464556 23.159624
v 2.999592 -6.331522 15.167391
v -5.717629 -5.920029 7.870761
v -1.480747 -7.801538 28.077898
v 6.524981 -3.722396 21.357841
v 1.745624 -8.079764 24.255133
v 9.103435 -3.880655 12.002495
v 4.746362 8.696989 8.957848
v -7.821793 6.067844 3.959009
v -0.267272 7.492299 12.572456
v 8.309728 -1.911450 11.995044
v 1.714977 9.724751 19.176317
v 7.963713 -0.482236 13.837470
v -9.453132 -2.870076 33.999882
v 3.281216 9.329686 14.030933
v 0.218056 9.901209 23.986191
v -5.502109 -4.523725 27.034286
v -6.462507 2.822966 33.199734
v -4.752392 5.316381 28.610544
v 9.709051 -1.820755 18.790487
v 7.759297 -1.910520 25.886654
v -3.083736 -7.016053 0.000112
v -9.884181 -0.567622 26.444036
v 7.895549 2.526341 27.504158
v 5.990738 4.729615 33.996708
v -3.518348 6.537995 26.300978
v 3.531899 6.122687 27.960560
v 8.676309 -4.745201 8.985425
v -0.971351 -7.573210 32.450714
v 4.855827 5.093261 22.126179
v 8.294245 -0.612633 29.066034
v -6.040613 -7.841120 4.058613
v 5.629880 4.184879 19.439196
v 7.003115 -6.979534 0.000428
v 8.242846 -0.998014 27.729441
v 4.465543 8.841142 9.976404
v 4.929835 -6.727226 1.814457
v -4.079020 -6.183003 20.815287
v -9.580667 -2.524151 32.722458
v -6.627074 -3.493414 3.812315
v -1.810733 -9.748097 18.902952
v 6.971540 7.013083 0.000358
v -7.007858 6.987006 0.000323
v -5.328682 4.637183 22.236639
v -6.928175 -1.650277 1.498456
v -8.000592 2.396244 8.973745
v -7.597932 -2.465922 25.680449
v -5.403563 -8.328332 6.535644
v -7.007858 6.987006 0.000323
v 9.868655 0.602082 26.590939
v -7.975335 1.622298 10.449722
v 0.890449 9.845007 21.785759
v 6.796831 7.173073 0.856799
v 4.125290 -5.934775 11.525866
v -6.953781 -6.996453 -0.000572
v -5.282812 -5.990425 10.818905
v 4.034574 9.034902 11.468826
v -5.099164 6.607086 2.603814
v 5.147525 8.457565 7.501447
v -9.453132 -2.870076 33.999882
v -1.810733 -9.748097 18.902952
v -4.672697 5.711416 11.272508
v 4.328829 5.845876 20.577253
v -5.310022 4.733343 20.525974
v -7.749199 2.301652 7.298318
v -0.749409 7.049002 8.091041
v -0.784836 -8.133657 14.057371
v 9.479382 2.874857 33.999069
v 1.093933 9.823141 21.181995
v -2.845568 9.468113 33.999649
v 3.620408 7.122454 1.047547
v -1.114697 -9.836725 21.132395
v -8.150183 5.633564 5.659635
v -6.175610 -3.292699 14.438821
v 7.559298 -6.385900 2.684860
v -0.458206 -9.880955 23.230263
v 6.691081 4.641678 2.222234
v 4.153077 -5.634887 19.956522
v -0.465680 9.865717 26.193933
v 2.707853 -9.509459 33.488350
v 2.111145 -9.692187 31.441689
v -9.618263 2.291575 17.382309
v 9.478963 -2.816216 15.661203
v -1.432009 -7.696764 8.740458
v 4.465543 8.841142 9.976404
v -2.363672 6.849577 18.275429
v 6.929194 1.576489 12.670322
v -5.612744 -4.293090 16.487007
v 1.286899 -9.822433 28.768290
v -2.972848 -7.836108 19.680506
v -5.321539 5.922343 7.309843
v -6.587151 2.709229 30.904284
v 5.848079 -3.844708 29.959869
v 6.766949 1.791201 8.130435
v -1.397577 9.794185 29.104921
v -5.427822 -4.429829 22.217840
v -6.705574 -7.273204 1.269119
v 4.249347 6.859157 15.623995
v -7.241305 0.593807 6.005657
v 5.877996 5.436738 7.514595
v 3.376279 6.149006 31.283329
v 7.844019 2.201556 25.425095
v -6.386099 -2.997747 9.662053
v 9.479382 2.874857 33.999069
v -6.953781 -6.996453 -0.000572
v 4.833326 -5.058487 23.392645
v 3.068024 6.292682 33.999836
v 6.012319 -5.668009 7.916481
v 6.971540 7.013083 0.000358
v -9.719077 -1.935186 30.852112
v -3.984925 -9.066686 11.669579
v 0.008419 -8.421929 30.966253
v 1.714977 9.724751 19.176317
v -7.339733 1.814041 4.534136
v -6.766949 -1.791201 8.130435
v 6.058857 3.497065 16.578873
v 1.286899 -9.822433 28.768290
v -0.458206 -9.880955 23.230263
v -8.150183 5.633564 5.659635
v -8.004512 -1.107970 20.815819
v -9.115915 3.892651 12.065250
v -9.872495 0.345631 23.603569
v 0.589101 -7.350236 12.391103
v -7.325886 1.825359 29.657681
v -9.916379 -0.055343 24.841831
v -0.582811 8.280377 20.058779
v 9.777887 1.571375 29.660555
v 2.345746 9.634438 17.153387
v -9.814168 -1.292012 28.801704
v 5.629970 8.107251 5.621803
v 7.163044 -1.420905 3.109537
v -6.249911 -3.269560 18.986193
v 0.498435 7.866038 32.357216
v -9.748650 1.774092 19.001730
v -7.246827 2.889857 2.429905
v -3.407254 -9.296011 13.652249
v -5.291489 4.572952 27.284393
v -2.680690 -9.528747 16.053492
v 5.280760 -4.773756 32.112965
v 9.899156 -0.080817 24.423864
v -9.457487 2.946274 15.211276
v 6.263490 3.127035 14.395977
v 7.991297 -0.641973 30.826679
v 2.717162 -6.800038 2.822577
v 9.673206 2.129169 31.491343
v -8.833609 4.474506 9.942677
v -8.514701 5.042757 7.884555
v 4.224456 -6.480494 4.218306
v 8.262264 -5.471051 6.290194
v -6.862534 -3.746506 30.202259
v 6.358358 7.567801 2.698319
v 7.082808 -3.647415 0.801027
v 6.796831 7.173073 0.856799
v -2.845568 9.468113 33.999649
v 7.878905 -6.000602 4.217400
v 9.777887 1.571375 29.660555
v 2.736139 -6.879485 22.172737
v 4.690944 5.196774 26.189480
v 9.626909 -2.152514 17.807875
v 5.124885 -4.764023 25.174040
v -3.851741 7.093089 32.032841
v 9.870976 -0.692482 22.487885
v 1.157845 7.758111 29.947599
v -3.083736 -7.016053 0.000112
v -9.748650 1.774092 19.001730
v 5.824636 -5.063367 13.180151
v 5.147525 8.457565 7.501447
v -1.001738 9.827174 27.889616
v -2.680690 -9.528747 16.053492
v -4.380755 -5.494511 25.577040
v -3.654986 6.884830 1.023714
v 0.654687 -9.877588 26.719822
v 0.433274 8.191411 15.518715
v 3.176367 7.297619 2.729970
v 9.870976 -0.692482 22.487885
v -2.191617 -8.198289 10.702534
v -9.618263 2.291575 17.382309
v -3.979020 -6.807940 17.603748
v -4.109916 5.665734 19.198030
v 6.941214 1.033282 4.474830
v -2.845568 9.468113 33.999649
v -4.599257 -6.226699 15.353209
v 7.612955 -2.920580 5.453044
v 7.003115 -6.979534 0.000428
v 3.068024 6.292682 33.999836
v -9.916379 -0.055343 24.841831
v 6.000070 -6.077619 5.307405
v 9.808311 -1.311255 20.452991
v 8.048158 0.201142 33.999729
v -1.488554 -7.219787 3.776545
v -7.771803 -0.767315 17.515528
