v -1.977322 9.700010 25.158436
v 3.208751 9.365037 11.611586
v -8.874430 4.386855 48.381607
v -9.209287 -3.631671 69.669518
v 1.579833 -6.819394 5.805793
v -7.361783 -6.618471 38.705288
v 3.993250 -5.749257 15.482115
v -3.701450 -9.181463 50.316872
v -6.100656 -7.796281 83.216370
v 6.618471 -7.361783 38.705288
v -5.749257 -3.993250 15.482115
v -1.756007 -9.742507 15.482115
v -6.100656 -7.796281 83.216370
v -6.998186 -0.159342 40.640553
v 7.655391 -6.276543 42.575817
v 4.982240 -8.554372 73.540047
v 4.165894 5.625418 63.863724
v -0.212442 -6.996776 79.345840
v 6.853589 -1.424192 34.834759
v -9.847594 1.012363 17.417379
v 6.441457 2.740007 50.316872
v -9.652487 -2.197613 65.798988
v -0.488090 9.887455 21.287909
v -7.796281 6.100656 83.216370
v 3.220455 -6.215197 52.252136
v -6.725896 1.939672 32.899494
v 3.727437 5.925050 65.798988
v -5.239561 -8.399226 5.805793
v 8.772272 -4.587728 7.741057
v -9.003478 -4.115505 30.964230
v 5.656868 4.123087 56.122665
v 6.784333 -7.209218 79.345840
v -3.861344 -5.838666 25.158436
v -8.554372 -4.982240 73.540047
v -0.742264 -6.960535 77.410576
v -9.003478 -4.115505 30.964230
v 6.449178 7.510533 1.935264
v -1.459524 9.791312 63.863724
v -8.109192 5.678117 44.511082
v -4.851844 -8.628999 87.086899
v 5.838666 -3.861344 25.158436
v -8.907463 -4.319386 71.604782
v -8.874430 4.386855 48.381607
v 4.982240 -8.554372 73.540047
v 0.037561 9.899424 59.993195
v -4.386855 -8.874430 48.381607
v -6.838844 -7.157528 40.640553
v -4.587728 -8.772272 7.741057
v 6.276543 7.655391 42.575817
v 7.000000 -7.000000 0.000000
v -9.779955 1.533781 56.122665
v 2.740007 -6.441457 50.316872
v 4.417615 -5.429979 17.417379
v 9.635532 -2.270796 54.187401
v -6.449178 -7.510533 1.935264
v -4.540075 5.328013 58.057930
v 9.873782 0.713033 61.928459
v 8.152045 5.616418 75.475311
v -6.502159 -2.592669 9.676322
v -6.740421 -1.888577 87.086899
v 4.386855 8.874430 48.381607
v -8.399226 5.239561 5.805793
v 7.000000 -7.000000 0.000000
v -6.990127 0.371656 38.705288
v 9.209287 3.631671 69.669518
v -0.037561 -9.899424 59.993195
v 6.502159 2.592669 9.676322
v 1.756007 9.742507 15.482115
v -5.953164 -3.682368 54.187401
v -4.183707 -8.971990 89.022156
v -5.239561 -8.399226 5.805793
v -6.630642 -2.243788 48.381607
v 4.319386 -8.907463 71.604782
v -6.960535 0.742264 77.410576
v -7.655391 6.276543 42.575817
v -6.853589 1.424192 34.834759
v 6.215197 3.220455 52.252136
v -6.618471 7.361783 38.705288
v 6.740421 1.888577 87.086899
v 9.899424 -0.037561 59.993195
v -6.577848 -2.394141 89.022156
v -2.197613 9.652487 65.798988
v 6.838844 7.157528 40.640553
v 6.680000 2.092272 7.741057
v 8.907463 4.319386 71.604782
v 3.631671 -9.209287 69.669518
v -9.581346 2.489543 13.546850
v -4.851844 -8.628999 87.086899
v -8.152045 -5.616418 75.475311
v -5.616418 8.152045 75.475311
v -3.727437 -5.925050 65.798988
v -9.700010 -1.977322 25.158436
v -3.421098 9.289569 29.028965
v 9.181463 -3.701450 50.316872
v 1.533781 9.779955 56.122665
v -4.580375 -5.293408 61.928459
v 9.458105 2.923054 67.734253
v -4.386855 -8.874430 48.381607
v -7.842350 -6.041319 36.770023
v 5.429397 -8.277781 34.834759
v -8.152045 -5.616418 75.475311
v 5.925050 -3.727437 65.798988
v 6.838844 7.157528 40.640553
v -2.788808 -6.420479 69.669518
v -6.768306 1.786066 73.540047
v -6.919538 -1.058301 3.870529
v -8.236342 5.492054 85.151634
v 7.361783 6.618471 38.705288
v 5.079448 4.816555 19.352644
v 1.977322 -9.700010 25.158436
v -1.236264 9.821999 23.223171
v -6.781664 -1.734655 46.446342
v 9.458105 2.923054 67.734253
v 7.000000 7.000000 0.000000
v -2.740007 6.441457 50.316872
v -9.365037 3.208751 11.611586
v 6.919538 1.058301 3.870529
v -8.277781 -5.429397 34.834759
v 8.236342 -5.492054 85.151634
v 7.702799 6.218271 77.410576
v 9.700010 1.977322 25.158436
v 5.625418 -4.165894 63.863724
v -9.522193 -2.707000 27.093700
v -7.311348 6.674143 81.281105
v 7.000000 7.000000 0.000000
v 8.971990 -4.183707 89.022156
v 3.631671 -9.209287 69.669518
v -1.215537 6.893654 44.511078
v -9.899424 0.037561 59.993195
v -6.114596 3.407596 27.093700
v -0.262893 -9.896004 19.352644
v -9.581346 2.489543 13.546850
v -4.699683 -5.187772 21.287909
v -5.429397 8.277781 34.834759
v -0.488090 9.887455 21.287909
v -7.510533 6.449178 1.935264
v -2.270796 -9.635532 54.187401
v 7.977838 -5.861237 3.870529
v 7.000000 -7.000000 0.000000
v -0.847813 6.948468 83.216370
v -4.115505 9.003478 30.964230
v -6.190580 3.267525 67.734253
v 9.365037 -3.208751 11.611586
v -6.674143 -7.311348 81.281105
v 2.197613 -9.652487 65.798988
v 1.888577 -6.740421 87.086899
v 2.994741 9.435652 52.252136
v 4.699683 5.187772 21.287909
v -5.678117 -8.109192 44.511082
v -6.355333 2.934236 29.028965
v 7.361783 6.618471 38.705288
v 9.791312 1.459524 63.863724
v 4.816555 -5.079448 19.352644
v 2.197613 -9.652487 65.798988
v -9.094828 3.909490 9.676322
v -2.243788 6.630642 48.381607
v 0.488090 -9.887455 21.287909
v -9.289569 -3.421098 29.028965
v -8.665567 -4.786224 32.899494
v -3.421098 9.289569 29.028965
v 9.899424 -0.037561 59.993195
v -4.587728 -8.772272 7.741057
v -8.516319 5.047010 46.446342
v 9.289569 3.421098 29.028965
v -8.554372 -4.982240 73.540047
v -4.786224 8.665567 32.899494
v 0.742264 6.960535 77.410576
v -2.394141 6.577848 89.022156
v 8.554372 4.982240 73.540047
v -6.449178 -7.510533 1.935264
v -2.994741 -9.435652 52.252136
v 9.003478 4.115505 30.964230
v 4.786224 -8.665567 32.899494
v 4.968492 4.930932 59.993195
v -1.533781 -9.779955 56.122665
v 9.821999 1.236264 23.223171
v 7.209218 6.784333 79.345840
v -8.516319 5.047010 46.446342
v 6.041319 -7.842350 36.770023
v -7.209218 -6.784333 79.345840
v 6.355333 -2.934236 29.028965
v 5.187772 -4.699683 21.287909
v 1.977322 -9.700010 25.158436
v -6.996776 0.212442 79.345840
v 1.058301 -6.919538 3.870529
v 3.682368 -5.953164 54.187401
v 1.372144 -6.864199 85.151634
v -1.236264 9.821999 23.223171
v 7.209218 6.784333 79.345840
v 0.689424 -6.965967 42.575817
v -4.930932 4.968492 59.993195
v 0.000000 7.000000 0.000000
v 6.190580 -3.267525 67.734253
v -7.655391 6.276543 42.575817
v -6.441457 -2.740007 50.316872
v -5.656868 -4.123087 56.122665
v -5.529131 4.292867 23.223171
v -7.000000 7.000000 0.000000
v 4.786224 -8.665567 32.899494
v -4.183707 -8.971990 89.022156
v -6.784333 7.209218 79.345840
v -3.208751 -9.365037 11.611586
v 7.000000 0.000000 0.000000
v -5.625418 4.165894 63.863724
v 8.665567 4.786224 32.899494
v -9.652487 -2.197613 65.798988
v -4.292867 -5.529131 23.223171
v -4.165894 -5.625418 63.863724
v 6.286894 3.078143 11.611586
v 9.094828 -3.909490 9.676322
v -9.700010 -1.977322 25.158436
v -3.220455 6.215197 52.252136
v 9.289569 3.421098 29.028965
v 6.449178 7.510533 1.935264
v -1.939672 -6.725896 32.899494
v -4.786224 8.665567 32.899494
v 5.492054 8.236342 85.151634
v 4.587728 8.772272 7.741057
v -9.635532 2.270796 54.187401
v 6.725896 -1.939672 32.899494
v 0.900516 6.941835 36.770023
v 8.971990 -4.183707 89.022156
v -9.435652 2.994741 52.252136
v -0.318602 6.992746 81.281105
v -6.838844 -7.157528 40.640553
v 6.941835 -0.900516 36.770023
v 4.115505 -9.003478 30.964230
v -7.000000 0.000000 0.000000
v -5.925050 3.727437 65.798988
v -5.187772 4.699683 21.287909
v -4.816555 5.079448 19.352644
v -5.429979 -4.417615 17.417379
v -1.888577 6.740421 87.086899
v 1.459524 -9.791312 63.863724
v -5.838666 3.861344 25.158436
v 7.510533 -6.449178 1.935264
v 8.971990 -4.183707 89.022156
v 5.678117 8.109192 44.511082
v -9.209287 -3.631671 69.669518
v 8.874430 -4.386855 48.381607
v -2.707000 9.522193 27.093700
v 5.047010 8.516319 46.446342
v 7.842350 6.041319 36.770023
v -0.689424 6.965967 42.575817
v -1.579833 6.819394 5.805793
v 6.035444 3.545901 13.546850
v -3.631671 9.209287 69.669518
v 3.407596 6.114596 27.093700
v 8.236342 -5.492054 85.151634
v 8.399226 -5.239561 5.805793
v 2.923054 -9.458105 67.734253
v 1.424192 6.853589 34.834759
v 1.459524 -9.791312 63.863724
v 2.270796 9.635532 54.187401
v -6.864199 -1.372144 85.151634
v -8.971990 4.183707 89.022156
v 0.000000 7.000000 0.000000
v 4.123087 -5.656868 56.122665
v -8.907463 -4.319386 71.604782
v -2.270796 -9.635532 54.187401
v 0.713033 -9.873782 61.928459
v 6.781664 1.734655 46.446342
v -3.682368 5.953164 54.187401
v -3.909490 -9.094828 9.676322
v -3.267525 -6.190580 67.734253
v 0.000000 -7.000000 0.000000
v -6.965967 -0.689424 42.575817
v 0.318602 -6.992746 81.281105
v -5.861237 -7.977838 3.870529
v -9.635532 2.270796 54.187401
v -7.157528 6.838844 40.640553
v -6.420479 2.788808 69.669518
v 3.909490 9.094828 9.676322
v 5.529131 -4.292867 23.223171
v 8.874430 -4.386855 48.381607
v -1.012363 -9.847594 17.417379
v -9.873782 -0.713033 61.928459
v 0.212442 6.996776 79.345840
v 9.896004 -0.262893 19.352644
v 6.218271 -7.702799 77.410576
v 7.842350 6.041319 36.770023
v 9.742507 -1.756007 15.482115
v -8.971990 4.183707 89.022156
v 8.665567 4.786224 32.899494
v 7.796281 -6.100656 83.216370
v 3.861344 5.838666 25.158436
v -0.900516 -6.941835 36.770023
v 2.092272 -6.680000 7.741057
v 8.516319 -5.047010 46.446342
v 0.037561 9.899424 59.993195
v 7.796281 -6.100656 83.216370
v -2.489543 -9.581346 13.546850
v 0.787938 9.868088 58.057930
v 5.861237 7.977838 3.870529
v -7.977838 5.861237 3.870529
v -1.424192 -6.853589 34.834759
v 6.559492 -2.443987 30.964230
v -4.968492 -4.930932 59.993195
v 6.996776 -0.212442 79.345840
v -6.674143 -7.311348 81.281105
v -5.678117 -8.109192 44.511082
v -6.559492 2.443987 30.964230
v -1.786066 -6.768306 73.540047
v 6.990127 -0.371656 38.705288
v -9.094828 3.909490 9.676322
v -1.459524 9.791312 63.863724
v 8.399226 -5.239561 5.805793
v 1.236264 -9.821999 23.223171
v -7.209218 -6.784333 79.345840
v 6.992746 0.318602 81.281105
v 9.522193 2.707000 27.093700
v 2.294039 6.613425 71.604782
v 1.267813 6.884232 75.475311
v 8.109192 -5.678117 44.511082
v 0.787938 9.868088 58.057930
v -6.218271 7.702799 77.410576
v 5.492054 8.236342 85.151634
v 2.394141 -6.577848 89.022156
v 3.421098 -9.289569 29.028965
v -1.372144 6.864199 85.151634
v 0.159342 -6.998186 40.640553
v 2.270796 9.635532 54.187401
v -9.868088 0.787938 58.057930
v 7.000000 0.000000 0.000000
v -7.977838 5.861237 3.870529
v -4.982240 8.554372 73.540047
v -4.183707 -8.971990 89.022156
v -9.791312 -1.459524 63.863724
v -8.772272 4.587728 7.741057
v 4.580375 5.293408 61.928459
v -7.000000 -7.000000 0.000000
v -9.458105 -2.923054 67.734253
v -5.047010 -8.516319 46.446342
v 4.930932 -4.968492 59.993195
v 0.262893 9.896004 19.352644
v -6.577848 -2.394141 89.022156
v 2.707000 -9.522193 27.093700
v -7.000000 7.000000 0.000000
v 9.581346 -2.489543 13.546850
v 8.152045 5.616418 75.475311
v 9.847594 -1.012363 17.417379
v -6.948468 -0.847813 83.216370
v 8.109192 -5.678117 44.511082
v 1.012363 9.847594 17.417379
v 3.701450 9.181463 50.316872
v -4.319386 8.907463 71.604782
v -2.294039 -6.613425 71.604782
v 1.533781 9.779955 56.122665
v -3.701450 -9.181463 50.316872
v -7.157528 6.838844 40.640553
v 8.628999 -4.851844 87.086899
v -9.458105 -2.923054 67.734253
v -8.109192 5.678117 44.511082
v -5.079448 -4.816555 19.352644
v -4.319386 8.907463 71.604782
v -3.993250 5.749257 15.482115
v 6.768306 -1.786066 73.540047
v 4.183707 8.971990 89.022156
v -7.000000 -7.000000 0.000000
v -2.489543 -9.581346 13.546850
v -8.772272 4.587728 7.741057
v -1.977322 9.700010 25.158436
v 3.078143 -6.286894 11.611586
v 8.772272 -4.587728 7.741057
v 4.183707 8.971990 89.022156
v 4.292867 5.529131 23.223171
v -1.267813 -6.884232 75.475311
v 9.779955 -1.533781 56.122665
v 7.157528 -6.838844 40.640553
v 3.701450 9.181463 50.316872
v 3.208751 9.365037 11.611586
v 6.630642 2.243788 48.381607
v 0.371656 6.990127 38.705288
v 6.218271 -7.702799 77.410576
v 5.616418 -8.152045 75.475311
v -7.000000 7.000000 0.000000
v -8.628999 4.851844 87.086899
v -8.277781 -5.429397 34.834759
v -0.262893 -9.896004 19.352644
v 6.618471 -7.361783 38.705288
v -9.847594 1.012363 17.417379
v -0.713033 9.873782 61.928459
v 6.577848 2.394141 89.022156
v 9.522193 2.707000 27.093700
v -9.435652 2.994741 52.252136
v -3.078143 6.286894 11.611586
v 6.784333 -7.209218 79.345840
v 9.435652 -2.994741 52.252136
v 2.489543 9.581346 13.546850
v -5.492054 -8.236342 85.151634
v -6.041319 7.842350 36.770023
v 6.864199 1.372144 85.151634
v -7.000000 -7.000000 0.000000
v 6.674143 7.311348 81.281105
v -7.702799 -6.218271 77.410576
v -9.289569 -3.421098 29.028965
v -6.218271 7.702799 77.410576
v 9.791312 1.459524 63.863724
v -6.884232 1.267813 75.475311
v 2.243788 -6.630642 48.381607
v 6.893654 1.215537 44.511078
v 6.960535 -0.742264 77.410576
v 4.851844 8.628999 87.086899
v -2.923054 9.458105 67.734253
v -6.613425 2.294039 71.604782
v -0.713033 9.873782 61.928459
v -3.631671 9.209287 69.669518
v -9.742507 1.756007 15.482115
v -3.208751 -9.365037 11.611586
v -9.821999 -1.236264 23.223171
v -7.842350 -6.041319 36.770023
v 5.749257 3.993250 15.482115
v 2.788808 6.420479 69.669518
v 2.443987 6.559492 30.964230
v 8.277781 5.429397 34.834759
v 9.435652 -2.994741 52.252136
v -6.276543 -7.655391 42.575817
v 8.516319 -5.047010 46.446342
v 8.628999 -4.851844 87.086899
v -6.035444 -3.545901 13.546850
v 9.887455 0.488090 21.287909
v -0.787938 -9.868088 58.057930
v 5.293408 -4.580375 61.928459
v 6.100656 7.796281 83.216370
v 9.779955 -1.533781 56.122665
v -2.092272 6.680000 7.741057
v 6.674143 7.311348 81.281105
v -7.702799 -6.218271 77.410576
v 4.183707 8.971990 89.022156
v 2.994741 9.435652 52.252136
v -6.680000 -2.092272 7.741057
v -2.592669 6.502159 9.676322
v 6.884232 -1.267813 75.475311
v 6.819394 1.579833 5.805793
v -5.861237 -7.977838 3.870529
v 9.365037 -3.208751 11.611586
v 5.953164 3.682368 54.187401
v 6.965967 0.689424 42.575817
v 7.157528 -6.838844 40.640553
v -0.787938 -9.868088 58.057930
v -2.443987 -6.559492 30.964230
v 8.277781 5.429397 34.834759
v 9.868088 -0.787938 58.057930
v -9.791312 -1.459524 63.863724
v -5.616418 8.152045 75.475311
v 2.489543 9.581346 13.546850
v 6.276543 7.655391 42.575817
v -5.293408 4.580375 61.928459
v 7.510533 -6.449178 1.935264
v 9.181463 -3.701450 50.316872
v -6.041319 7.842350 36.770023
v -4.123087 5.656868 56.122665
v -9.365037 3.208751 11.611586
v 2.707000 -9.522193 27.093700
v 5.616418 -8.152045 75.475311
v -2.994741 -9.435652 52.252136
v -6.276543 -7.655391 42.575817
v 9.094828 -3.909490 9.676322
v -9.887455 -0.488090 21.287909
v -9.742507 1.756007 15.482115
v -7.311348 6.674143 81.281105
v 3.421098 -9.289569 29.028965
v -1.756007 -9.742507 15.482115
v 2.592669 -6.502159 9.676322
v 4.386855 8.874430 48.381607
v -8.628999 4.851844 87.086899
v -6.784333 7.209218 79.345840
v 1.786066 6.768306 73.540047
v -6.941835 0.900516 36.770023
v 1.215537 -6.893654 44.511078
v -6.618471 7.361783 38.705288
v 7.311348 -6.674143 81.281105
v -0.371656 -6.990127 38.705288
v -0.159342 6.998186 40.640553
v 8.554372 4.982240 73.540047
v 9.821999 1.236264 23.223171
v -1.012363 -9.847594 17.417379
v -8.236342 5.492054 85.151634
v 9.873782 0.713033 61.928459
v 1.012363 9.847594 17.417379
v 0.847813 -6.948468 83.216370
v 6.998186 0.159342 40.640553
v 5.239561 8.399226 5.805793
v 1.236264 -9.821999 23.223171
v -4.417615 5.429979 17.417379
v 1.939672 6.725896 32.899494
v 1.756007 9.742507 15.482115
v 9.847594 -1.012363 17.417379
v 7.655391 -6.276543 42.575817
v -2.934236 -6.355333 29.028965
v -5.429397 8.277781 34.834759
v -7.510533 6.449178 1.935264
v -8.399226 5.239561 5.805793
v -6.893654 -1.215537 44.511082
v 9.742507 -1.756007 15.482115
v 4.319386 -8.907463 71.604782
v -4.115505 9.003478 30.964230
v -3.407596 -6.114596 27.093700
v -9.896004 0.262893 19.352644
v 4.115505 -9.003478 30.964230
